<?xml version="1.0" encoding="UTF-8" standalone="no"?>
<!DOCTYPE svg PUBLIC "-//W3C//DTD SVG 1.1//EN"
 "http://www.w3.org/Graphics/SVG/1.1/DTD/svg11.dtd">
<!-- Generated by graphviz version 2.43.0 (0)
 -->
<!-- Title: G Pages: 1 -->
<svg width="2784pt" height="934pt"
 viewBox="0.00 0.00 2784.00 934.00" xmlns="http://www.w3.org/2000/svg" xmlns:xlink="http://www.w3.org/1999/xlink">
<g id="graph0" class="graph" transform="scale(1 1) rotate(0) translate(4 930)">
<title>G</title>
<polygon fill="#f8fafc" stroke="transparent" points="-4,4 -4,-930 2780,-930 2780,4 -4,4"/>
<g id="clust1" class="cluster">
<title>cluster_power</title>
<path fill="#ffedd5" stroke="#ea580c" stroke-width="2" d="M1736,-778C1736,-778 2141,-778 2141,-778 2147,-778 2153,-784 2153,-790 2153,-790 2153,-906 2153,-906 2153,-912 2147,-918 2141,-918 2141,-918 1736,-918 1736,-918 1730,-918 1724,-912 1724,-906 1724,-906 1724,-790 1724,-790 1724,-784 1730,-778 1736,-778"/>
<text text-anchor="middle" x="1938.5" y="-905.2" font-family="DejaVu Sans Bold" font-size="11.00" fill="#9a3412">⚡ KHỐI NGUỒN (POWER SUPPLY)</text>
</g>
<g id="clust2" class="cluster">
<title>cluster_sensors</title>
<path fill="#dcfce7" stroke="#16a34a" stroke-width="2" d="M42,-22C42,-22 215,-22 215,-22 221,-22 227,-28 227,-34 227,-34 227,-286 227,-286 227,-292 221,-298 215,-298 215,-298 42,-298 42,-298 36,-298 30,-292 30,-286 30,-286 30,-34 30,-34 30,-28 36,-22 42,-22"/>
<text text-anchor="middle" x="128.5" y="-285.2" font-family="DejaVu Sans Bold" font-size="11.00" fill="#166534">📷 KHỐI CẢM BIẾN (SENSING)</text>
</g>
<g id="clust3" class="cluster">
<title>cluster_rpi</title>
<path fill="#eff6ff" stroke="#2563eb" stroke-width="2.5" d="M377,-8C377,-8 1411,-8 1411,-8 1417,-8 1423,-14 1423,-20 1423,-20 1423,-461 1423,-461 1423,-467 1417,-473 1411,-473 1411,-473 377,-473 377,-473 371,-473 365,-467 365,-461 365,-461 365,-20 365,-20 365,-14 371,-8 377,-8"/>
<text text-anchor="middle" x="894" y="-459.4" font-family="DejaVu Sans Bold" font-size="12.00" fill="#1e40af">🧠 KHỐI XỬ LÝ CẤP CAO (RASPBERRY PI 4 &#45; ROS 2)</text>
</g>
<g id="clust4" class="cluster">
<title>cluster_perception</title>
<path fill="#dbeafe" stroke="#3b82f6" stroke-width="2.5" d="M385,-16C385,-16 856,-16 856,-16 862,-16 868,-22 868,-28 868,-28 868,-217 868,-217 868,-223 862,-229 856,-229 856,-229 385,-229 385,-229 379,-229 373,-223 373,-217 373,-217 373,-28 373,-28 373,-22 379,-16 385,-16"/>
<text text-anchor="middle" x="620.5" y="-217" font-family="DejaVu Sans Bold" font-size="10.00" fill="#1e40af">Phân Khối Nhận Thức &amp; Hợp Nhất Dữ Liệu</text>
</g>
<g id="clust5" class="cluster">
<title>cluster_decision</title>
<path fill="#dbeafe" stroke="#3b82f6" stroke-width="2.5" d="M701,-237C701,-237 1067,-237 1067,-237 1073,-237 1079,-243 1079,-249 1079,-249 1079,-432 1079,-432 1079,-438 1073,-444 1067,-444 1067,-444 701,-444 701,-444 695,-444 689,-438 689,-432 689,-432 689,-249 689,-249 689,-243 695,-237 701,-237"/>
<text text-anchor="middle" x="884" y="-432" font-family="DejaVu Sans Bold" font-size="10.00" fill="#1e40af">Phân Khối Ra Quyết Định &amp; Điều Khiển</text>
</g>
<g id="clust6" class="cluster">
<title>cluster_esp</title>
<path fill="#faf5ff" stroke="#9333ea" stroke-width="2.5" d="M933,-481C933,-481 1867,-481 1867,-481 1873,-481 1879,-487 1879,-493 1879,-493 1879,-684 1879,-684 1879,-690 1873,-696 1867,-696 1867,-696 933,-696 933,-696 927,-696 921,-690 921,-684 921,-684 921,-493 921,-493 921,-487 927,-481 933,-481"/>
<text text-anchor="middle" x="1400" y="-682.4" font-family="DejaVu Sans Bold" font-size="12.00" fill="#581c87">⚙️ KHỐI ĐIỀU KHIỂN CẤP THẤP (ESP32&#45;S3 FIRMWARE)</text>
</g>
<g id="clust7" class="cluster">
<title>cluster_actuation</title>
<path fill="#fee2e2" stroke="#dc2626" stroke-width="2" d="M2007.5,-637C2007.5,-637 2756,-637 2756,-637 2762,-637 2768,-643 2768,-649 2768,-649 2768,-703 2768,-703 2768,-709 2762,-715 2756,-715 2756,-715 2007.5,-715 2007.5,-715 2001.5,-715 1995.5,-709 1995.5,-703 1995.5,-703 1995.5,-649 1995.5,-649 1995.5,-643 2001.5,-637 2007.5,-637"/>
<text text-anchor="middle" x="2381.75" y="-702.2" font-family="DejaVu Sans Bold" font-size="11.00" fill="#991b1b">🚗 KHỐI CÔNG SUẤT &amp; CHẤP HÀNH</text>
</g>
<g id="clust8" class="cluster">
<title>cluster_hmi</title>
<path fill="#f1f5f9" stroke="#64748b" stroke-width="2" d="M12,-507C12,-507 245,-507 245,-507 251,-507 257,-513 257,-519 257,-519 257,-703 257,-703 257,-709 251,-715 245,-715 245,-715 12,-715 12,-715 6,-715 0,-709 0,-703 0,-703 0,-519 0,-519 0,-513 6,-507 12,-507"/>
<text text-anchor="middle" x="128.5" y="-702.2" font-family="DejaVu Sans Bold" font-size="11.00" fill="#334155">💻 KHỐI GIÁM SÁT TỪ XA (PC / LAPTOP)</text>
</g>
<!-- bat -->
<g id="node1" class="node">
<title>bat</title>
<path fill="#fed7aa" stroke="#ea580c" stroke-width="1.5" d="M1861,-824C1861,-824 1744,-824 1744,-824 1738,-824 1732,-818 1732,-812 1732,-812 1732,-800 1732,-800 1732,-794 1738,-788 1744,-788 1744,-788 1861,-788 1861,-788 1867,-788 1873,-794 1873,-800 1873,-800 1873,-812 1873,-812 1873,-818 1867,-824 1861,-824"/>
<text text-anchor="middle" x="1802.5" y="-809" font-family="DejaVu Sans" font-size="10.00">Ắc quy / Pin Li&#45;ion 24V</text>
<text text-anchor="middle" x="1802.5" y="-798" font-family="DejaVu Sans" font-size="10.00">(Nguồn công suất xả cao)</text>
</g>
<!-- buck1 -->
<g id="node2" class="node">
<title>buck1</title>
<path fill="#fed7aa" stroke="#ea580c" stroke-width="1.5" d="M2133,-890C2133,-890 2011,-890 2011,-890 2005,-890 1999,-884 1999,-878 1999,-878 1999,-866 1999,-866 1999,-860 2005,-854 2011,-854 2011,-854 2133,-854 2133,-854 2139,-854 2145,-860 2145,-866 2145,-866 2145,-878 2145,-878 2145,-884 2139,-890 2133,-890"/>
<text text-anchor="middle" x="2072" y="-875" font-family="DejaVu Sans" font-size="10.00">Mạch Buck 24V &#45;&gt; 5V (5A)</text>
<text text-anchor="middle" x="2072" y="-864" font-family="DejaVu Sans" font-size="10.00">(Cấp nguồn Pi 4)</text>
</g>
<!-- bat&#45;&gt;buck1 -->
<g id="edge2" class="edge">
<title>bat&#45;&gt;buck1</title>
<path fill="none" stroke="#ea580c" stroke-width="2" d="M1873.08,-823.17C1908.61,-831.93 1952.05,-842.65 1989.18,-851.81"/>
<polygon fill="#ea580c" stroke="#ea580c" stroke-width="2" points="1988.42,-855.23 1998.97,-854.23 1990.1,-848.43 1988.42,-855.23"/>
</g>
<!-- buck2 -->
<g id="node3" class="node">
<title>buck2</title>
<path fill="#fed7aa" stroke="#ea580c" stroke-width="1.5" d="M2133,-822C2133,-822 2011,-822 2011,-822 2005,-822 1999,-816 1999,-810 1999,-810 1999,-798 1999,-798 1999,-792 2005,-786 2011,-786 2011,-786 2133,-786 2133,-786 2139,-786 2145,-792 2145,-798 2145,-798 2145,-810 2145,-810 2145,-816 2139,-822 2133,-822"/>
<text text-anchor="middle" x="2072" y="-807" font-family="DejaVu Sans" font-size="10.00">Mạch Buck 24V &#45;&gt; 5V (3A)</text>
<text text-anchor="middle" x="2072" y="-796" font-family="DejaVu Sans" font-size="10.00">(Cấp nguồn ESP32 cách ly)</text>
</g>
<!-- bat&#45;&gt;buck2 -->
<g id="edge3" class="edge">
<title>bat&#45;&gt;buck2</title>
<path fill="none" stroke="#ea580c" stroke-width="2" d="M1873.08,-805.48C1908.46,-805.22 1951.68,-804.89 1988.7,-804.62"/>
<polygon fill="#ea580c" stroke="#ea580c" stroke-width="2" points="1988.99,-808.11 1998.97,-804.54 1988.94,-801.11 1988.99,-808.11"/>
</g>
<!-- drv -->
<g id="node22" class="node">
<title>drv</title>
<path fill="#fecaca" stroke="#dc2626" stroke-width="1.5" d="M2128.5,-687C2128.5,-687 2015.5,-687 2015.5,-687 2009.5,-687 2003.5,-681 2003.5,-675 2003.5,-675 2003.5,-663 2003.5,-663 2003.5,-657 2009.5,-651 2015.5,-651 2015.5,-651 2128.5,-651 2128.5,-651 2134.5,-651 2140.5,-657 2140.5,-663 2140.5,-663 2140.5,-675 2140.5,-675 2140.5,-681 2134.5,-687 2128.5,-687"/>
<text text-anchor="middle" x="2072" y="-672" font-family="DejaVu Sans" font-size="10.00">4 Mạch cầu H BTS7960</text>
<text text-anchor="middle" x="2072" y="-661" font-family="DejaVu Sans" font-size="10.00">(Dòng tải công suất 43A)</text>
</g>
<!-- bat&#45;&gt;drv -->
<g id="edge1" class="edge">
<title>bat&#45;&gt;drv</title>
<path fill="none" stroke="#ea580c" stroke-width="2.5" d="M1838.75,-787.95C1887.06,-763.2 1973.86,-718.75 2026.57,-691.76"/>
<polygon fill="#ea580c" stroke="#ea580c" stroke-width="2.5" points="2028.37,-694.76 2035.68,-687.09 2025.18,-688.53 2028.37,-694.76"/>
<text text-anchor="middle" x="1936" y="-759.8" font-family="DejaVu Sans" font-size="9.00">24V Động lực</text>
</g>
<!-- cluster_rpi -->
<g id="node28" class="node">
<title>cluster_rpi</title>
<path fill="lightgrey" stroke="black" stroke-width="1.5" d="M2341.5,-890C2341.5,-890 2297.5,-890 2297.5,-890 2291.5,-890 2285.5,-884 2285.5,-878 2285.5,-878 2285.5,-866 2285.5,-866 2285.5,-860 2291.5,-854 2297.5,-854 2297.5,-854 2341.5,-854 2341.5,-854 2347.5,-854 2353.5,-860 2353.5,-866 2353.5,-866 2353.5,-878 2353.5,-878 2353.5,-884 2347.5,-890 2341.5,-890"/>
<text text-anchor="middle" x="2319.5" y="-869.5" font-family="DejaVu Sans" font-size="10.00">cluster_rpi</text>
</g>
<!-- buck1&#45;&gt;cluster_rpi -->
<g id="edge4" class="edge">
<title>buck1&#45;&gt;cluster_rpi</title>
<path fill="none" stroke="#ea580c" stroke-width="1.5" stroke-dasharray="5,2" d="M2145.33,-872C2187.55,-872 2239.41,-872 2275.31,-872"/>
<polygon fill="#ea580c" stroke="#ea580c" stroke-width="1.5" points="2275.45,-875.5 2285.45,-872 2275.45,-868.5 2275.45,-875.5"/>
<text text-anchor="middle" x="2195" y="-874.8" font-family="DejaVu Sans" font-size="9.00">5V (5A)</text>
</g>
<!-- cluster_esp -->
<g id="node29" class="node">
<title>cluster_esp</title>
<path fill="lightgrey" stroke="black" stroke-width="1.5" d="M2343.5,-822C2343.5,-822 2295.5,-822 2295.5,-822 2289.5,-822 2283.5,-816 2283.5,-810 2283.5,-810 2283.5,-798 2283.5,-798 2283.5,-792 2289.5,-786 2295.5,-786 2295.5,-786 2343.5,-786 2343.5,-786 2349.5,-786 2355.5,-792 2355.5,-798 2355.5,-798 2355.5,-810 2355.5,-810 2355.5,-816 2349.5,-822 2343.5,-822"/>
<text text-anchor="middle" x="2319.5" y="-801.5" font-family="DejaVu Sans" font-size="10.00">cluster_esp</text>
</g>
<!-- buck2&#45;&gt;cluster_esp -->
<g id="edge5" class="edge">
<title>buck2&#45;&gt;cluster_esp</title>
<path fill="none" stroke="#ea580c" stroke-width="1.5" stroke-dasharray="5,2" d="M2145.33,-804C2186.78,-804 2237.52,-804 2273.33,-804"/>
<polygon fill="#ea580c" stroke="#ea580c" stroke-width="1.5" points="2273.47,-807.5 2283.47,-804 2273.47,-800.5 2273.47,-807.5"/>
<text text-anchor="middle" x="2195" y="-806.8" font-family="DejaVu Sans" font-size="9.00">5V (3A)</text>
</g>
<!-- cam -->
<g id="node4" class="node">
<title>cam</title>
<path fill="#bbf7d0" stroke="#16a34a" stroke-width="1.5" d="M175.5,-134C175.5,-134 80.5,-134 80.5,-134 74.5,-134 68.5,-128 68.5,-122 68.5,-122 68.5,-110 68.5,-110 68.5,-104 74.5,-98 80.5,-98 80.5,-98 175.5,-98 175.5,-98 181.5,-98 187.5,-104 187.5,-110 187.5,-110 187.5,-122 187.5,-122 187.5,-128 181.5,-134 175.5,-134"/>
<text text-anchor="middle" x="128" y="-119" font-family="DejaVu Sans" font-size="10.00">Webcam USB DVD20</text>
<text text-anchor="middle" x="128" y="-108" font-family="DejaVu Sans" font-size="10.00">(1080p, FOV 78°)</text>
</g>
<!-- ai -->
<g id="node8" class="node">
<title>ai</title>
<path fill="#bfdbfe" stroke="#2563eb" stroke-width="1.5" d="M527,-133.5C527,-133.5 411,-133.5 411,-133.5 405,-133.5 399,-127.5 399,-121.5 399,-121.5 399,-104.5 399,-104.5 399,-98.5 405,-92.5 411,-92.5 411,-92.5 527,-92.5 527,-92.5 533,-92.5 539,-98.5 539,-104.5 539,-104.5 539,-121.5 539,-121.5 539,-127.5 533,-133.5 527,-133.5"/>
<text text-anchor="middle" x="469" y="-121.5" font-family="DejaVu Sans" font-size="10.00">Mạng CNN ONNX</text>
<text text-anchor="middle" x="469" y="-110.5" font-family="DejaVu Sans" font-size="10.00">(crop_row_cnn_best_final</text>
<text text-anchor="middle" x="469" y="-99.5" font-family="DejaVu Sans" font-size="10.00">Tensor 512x512)</text>
</g>
<!-- cam&#45;&gt;ai -->
<g id="edge6" class="edge">
<title>cam&#45;&gt;ai</title>
<path fill="none" stroke="#16a34a" stroke-width="1.5" d="M187.66,-115.48C243.31,-114.99 327.34,-114.24 388.89,-113.7"/>
<polygon fill="#16a34a" stroke="#16a34a" stroke-width="1.5" points="388.99,-117.2 398.96,-113.61 388.93,-110.2 388.99,-117.2"/>
<text text-anchor="middle" x="314" y="-116.8" font-family="DejaVu Sans" font-size="9.00">USB Video Stream</text>
</g>
<!-- lidar -->
<g id="node5" class="node">
<title>lidar</title>
<path fill="#bbf7d0" stroke="#16a34a" stroke-width="1.5" d="M188,-202C188,-202 68,-202 68,-202 62,-202 56,-196 56,-190 56,-190 56,-178 56,-178 56,-172 62,-166 68,-166 68,-166 188,-166 188,-166 194,-166 200,-172 200,-178 200,-178 200,-190 200,-190 200,-196 194,-202 188,-202"/>
<text text-anchor="middle" x="128" y="-187" font-family="DejaVu Sans" font-size="10.00">RPLIDAR C1</text>
<text text-anchor="middle" x="128" y="-176" font-family="DejaVu Sans" font-size="10.00">(Laser 360°, Tầm xa 12m)</text>
</g>
<!-- lidar_proc -->
<g id="node9" class="node">
<title>lidar_proc</title>
<path fill="#bfdbfe" stroke="#2563eb" stroke-width="1.5" d="M531.5,-202C531.5,-202 406.5,-202 406.5,-202 400.5,-202 394.5,-196 394.5,-190 394.5,-190 394.5,-178 394.5,-178 394.5,-172 400.5,-166 406.5,-166 406.5,-166 531.5,-166 531.5,-166 537.5,-166 543.5,-172 543.5,-178 543.5,-178 543.5,-190 543.5,-190 543.5,-196 537.5,-202 531.5,-202"/>
<text text-anchor="middle" x="469" y="-187" font-family="DejaVu Sans" font-size="10.00">Lidar Processor</text>
<text text-anchor="middle" x="469" y="-176" font-family="DejaVu Sans" font-size="10.00">(Quét cản &amp; Hết hàng EOR)</text>
</g>
<!-- lidar&#45;&gt;lidar_proc -->
<g id="edge7" class="edge">
<title>lidar&#45;&gt;lidar_proc</title>
<path fill="none" stroke="#16a34a" stroke-width="1.5" d="M200.07,-184C253.71,-184 327.49,-184 384.04,-184"/>
<polygon fill="#16a34a" stroke="#16a34a" stroke-width="1.5" points="384.39,-187.5 394.39,-184 384.39,-180.5 384.39,-187.5"/>
<text text-anchor="middle" x="314" y="-186.8" font-family="DejaVu Sans" font-size="9.00">USB&#45;Serial 460800</text>
</g>
<!-- imu -->
<g id="node6" class="node">
<title>imu</title>
<path fill="#bbf7d0" stroke="#16a34a" stroke-width="1.5" d="M177,-66C177,-66 79,-66 79,-66 73,-66 67,-60 67,-54 67,-54 67,-42 67,-42 67,-36 73,-30 79,-30 79,-30 177,-30 177,-30 183,-30 189,-36 189,-42 189,-42 189,-54 189,-54 189,-60 183,-66 177,-66"/>
<text text-anchor="middle" x="128" y="-51" font-family="DejaVu Sans" font-size="10.00">IMU ICM&#45;20948</text>
<text text-anchor="middle" x="128" y="-40" font-family="DejaVu Sans" font-size="10.00">(9 trục: Gyro + Accel)</text>
</g>
<!-- madgwick -->
<g id="node10" class="node">
<title>madgwick</title>
<path fill="#bfdbfe" stroke="#2563eb" stroke-width="1.5" d="M545,-60C545,-60 393,-60 393,-60 387,-60 381,-54 381,-48 381,-48 381,-36 381,-36 381,-30 387,-24 393,-24 393,-24 545,-24 545,-24 551,-24 557,-30 557,-36 557,-36 557,-48 557,-48 557,-54 551,-60 545,-60"/>
<text text-anchor="middle" x="469" y="-45" font-family="DejaVu Sans" font-size="10.00">Bộ lọc Madgwick AHRS</text>
<text text-anchor="middle" x="469" y="-34" font-family="DejaVu Sans" font-size="10.00">(Tính hướng Yaw/Roll/Pitch 50Hz)</text>
</g>
<!-- imu&#45;&gt;madgwick -->
<g id="edge8" class="edge">
<title>imu&#45;&gt;madgwick</title>
<path fill="none" stroke="#16a34a" stroke-width="1.5" d="M189.22,-46.93C239.58,-46.04 312.37,-44.75 370.95,-43.72"/>
<polygon fill="#16a34a" stroke="#16a34a" stroke-width="1.5" points="371.03,-47.22 380.97,-43.54 370.91,-40.22 371.03,-47.22"/>
<text text-anchor="middle" x="314" y="-48.8" font-family="DejaVu Sans" font-size="9.00">I2C Bus 1</text>
</g>
<!-- enc -->
<g id="node7" class="node">
<title>enc</title>
<path fill="#bbf7d0" stroke="#16a34a" stroke-width="1.5" d="M179.5,-270C179.5,-270 76.5,-270 76.5,-270 70.5,-270 64.5,-264 64.5,-258 64.5,-258 64.5,-246 64.5,-246 64.5,-240 70.5,-234 76.5,-234 76.5,-234 179.5,-234 179.5,-234 185.5,-234 191.5,-240 191.5,-246 191.5,-246 191.5,-258 191.5,-258 191.5,-264 185.5,-270 179.5,-270"/>
<text text-anchor="middle" x="128" y="-255" font-family="DejaVu Sans" font-size="10.00">4x Encoder Quang Học</text>
<text text-anchor="middle" x="128" y="-244" font-family="DejaVu Sans" font-size="10.00">(200 xung/vòng PPR)</text>
</g>
<!-- kalman -->
<g id="node19" class="node">
<title>kalman</title>
<path fill="#f3e8ff" stroke="#9333ea" stroke-width="1.5" d="M1389.5,-667C1389.5,-667 1276.5,-667 1276.5,-667 1270.5,-667 1264.5,-661 1264.5,-655 1264.5,-655 1264.5,-643 1264.5,-643 1264.5,-637 1270.5,-631 1276.5,-631 1276.5,-631 1389.5,-631 1389.5,-631 1395.5,-631 1401.5,-637 1401.5,-643 1401.5,-643 1401.5,-655 1401.5,-655 1401.5,-661 1395.5,-667 1389.5,-667"/>
<text text-anchor="middle" x="1333" y="-652" font-family="DejaVu Sans" font-size="10.00">4 Bộ lọc Kalman 1D</text>
<text text-anchor="middle" x="1333" y="-641" font-family="DejaVu Sans" font-size="10.00">(Lọc gai nhiễu chổi than)</text>
</g>
<!-- enc&#45;&gt;kalman -->
<g id="edge28" class="edge">
<title>enc&#45;&gt;kalman</title>
<path fill="none" stroke="#16a34a" stroke-width="1.5" d="M135.4,-270C162.73,-343.25 277,-615 468,-615 468,-615 468,-615 989,-615 1080.4,-615 1184.83,-627.1 1254.21,-636.87"/>
<polygon fill="#16a34a" stroke="#16a34a" stroke-width="1.5" points="1253.79,-640.34 1264.19,-638.29 1254.78,-633.41 1253.79,-640.34"/>
<text text-anchor="middle" x="778" y="-617.8" font-family="DejaVu Sans" font-size="9.00">Xung A/B (200 PPR)</text>
</g>
<!-- fsm -->
<g id="node12" class="node">
<title>fsm</title>
<path fill="#93c5fd" stroke="#1d4ed8" stroke-width="1.5" d="M847,-281C847,-281 709,-281 709,-281 703,-281 697,-275 697,-269 697,-269 697,-257 697,-257 697,-251 703,-245 709,-245 709,-245 847,-245 847,-245 853,-245 859,-251 859,-257 859,-257 859,-269 859,-269 859,-275 853,-281 847,-281"/>
<text text-anchor="middle" x="778" y="-266" font-family="DejaVu Sans" font-size="10.00">FSM Coordinator</text>
<text text-anchor="middle" x="778" y="-255" font-family="DejaVu Sans" font-size="10.00">(Quản trị 9 trạng thái tự hành)</text>
</g>
<!-- ai&#45;&gt;fsm -->
<g id="edge9" class="edge">
<title>ai&#45;&gt;fsm</title>
<path fill="none" stroke="#2563eb" stroke-width="1.5" d="M539.13,-126.08C582.98,-137.65 638.02,-158.72 674,-196 687.47,-209.96 674.85,-223.72 689,-237 689.69,-237.64 690.39,-238.27 691.1,-238.88"/>
<polygon fill="#2563eb" stroke="#2563eb" stroke-width="1.5" points="689.13,-241.78 699.26,-244.87 693.27,-236.13 689.13,-241.78"/>
<text text-anchor="middle" x="626.5" y="-198.8" font-family="DejaVu Sans" font-size="9.00">Góc lệch &amp; Lệch tâm</text>
</g>
<!-- lidar_proc&#45;&gt;fsm -->
<g id="edge10" class="edge">
<title>lidar_proc&#45;&gt;fsm</title>
<path fill="none" stroke="#2563eb" stroke-width="1.5" d="M540.05,-202.03C586.82,-214.06 648.44,-229.92 697.12,-242.44"/>
<polygon fill="#2563eb" stroke="#2563eb" stroke-width="1.5" points="696.43,-245.88 706.99,-244.98 698.18,-239.1 696.43,-245.88"/>
<text text-anchor="middle" x="626.5" y="-237.8" font-family="DejaVu Sans" font-size="9.00">Báo cản &amp; EOR</text>
</g>
<!-- ekf -->
<g id="node11" class="node">
<title>ekf</title>
<path fill="#bfdbfe" stroke="#2563eb" stroke-width="1.5" d="M848,-181C848,-181 708,-181 708,-181 702,-181 696,-175 696,-169 696,-169 696,-157 696,-157 696,-151 702,-145 708,-145 708,-145 848,-145 848,-145 854,-145 860,-151 860,-157 860,-157 860,-169 860,-169 860,-175 854,-181 848,-181"/>
<text text-anchor="middle" x="778" y="-166" font-family="DejaVu Sans" font-size="10.00">Bộ lọc EKF Localization</text>
<text text-anchor="middle" x="778" y="-155" font-family="DejaVu Sans" font-size="10.00">(Dung hợp Odom + IMU 30Hz)</text>
</g>
<!-- madgwick&#45;&gt;ekf -->
<g id="edge11" class="edge">
<title>madgwick&#45;&gt;ekf</title>
<path fill="none" stroke="#2563eb" stroke-width="1.5" d="M521.02,-60.12C562.47,-75.06 622.32,-97.1 674,-118 691.71,-125.16 710.93,-133.42 727.92,-140.9"/>
<polygon fill="#2563eb" stroke="#2563eb" stroke-width="1.5" points="726.55,-144.12 737.11,-144.96 729.38,-137.71 726.55,-144.12"/>
<text text-anchor="middle" x="626.5" y="-120.8" font-family="DejaVu Sans" font-size="9.00">/imu/data</text>
</g>
<!-- ekf&#45;&gt;fsm -->
<g id="edge12" class="edge">
<title>ekf&#45;&gt;fsm</title>
<path fill="none" stroke="#2563eb" stroke-width="1.5" d="M778,-181.34C778,-196.28 778,-217.63 778,-234.76"/>
<polygon fill="#2563eb" stroke="#2563eb" stroke-width="1.5" points="774.5,-234.77 778,-244.77 781.5,-234.77 774.5,-234.77"/>
<text text-anchor="middle" x="770" y="-210.8" font-family="DejaVu Sans" font-size="9.00">/odometry/filtered</text>
</g>
<!-- smc -->
<g id="node13" class="node">
<title>smc</title>
<path fill="#93c5fd" stroke="#1d4ed8" stroke-width="1.5" d="M1056.5,-349C1056.5,-349 919.5,-349 919.5,-349 913.5,-349 907.5,-343 907.5,-337 907.5,-337 907.5,-325 907.5,-325 907.5,-319 913.5,-313 919.5,-313 919.5,-313 1056.5,-313 1056.5,-313 1062.5,-313 1068.5,-319 1068.5,-325 1068.5,-325 1068.5,-337 1068.5,-337 1068.5,-343 1062.5,-349 1056.5,-349"/>
<text text-anchor="middle" x="988" y="-334" font-family="DejaVu Sans" font-size="10.00">Bộ điều khiển trượt SMC</text>
<text text-anchor="middle" x="988" y="-323" font-family="DejaVu Sans" font-size="10.00">(Bám tâm luống v = 0.20m/s)</text>
</g>
<!-- fsm&#45;&gt;smc -->
<g id="edge13" class="edge">
<title>fsm&#45;&gt;smc</title>
<path fill="none" stroke="#2563eb" stroke-width="1.5" d="M834.19,-281.04C861.22,-289.88 893.92,-300.57 922.14,-309.79"/>
<polygon fill="#2563eb" stroke="#2563eb" stroke-width="1.5" points="921.32,-313.21 931.91,-312.99 923.49,-306.56 921.32,-313.21"/>
</g>
<!-- pp -->
<g id="node14" class="node">
<title>pp</title>
<path fill="#93c5fd" stroke="#1d4ed8" stroke-width="1.5" d="M1059,-281C1059,-281 917,-281 917,-281 911,-281 905,-275 905,-269 905,-269 905,-257 905,-257 905,-251 911,-245 917,-245 917,-245 1059,-245 1059,-245 1065,-245 1071,-251 1071,-257 1071,-257 1071,-269 1071,-269 1071,-275 1065,-281 1059,-281"/>
<text text-anchor="middle" x="988" y="-266" font-family="DejaVu Sans" font-size="10.00">Bộ điều khiển Pure Pursuit</text>
<text text-anchor="middle" x="988" y="-255" font-family="DejaVu Sans" font-size="10.00">(Bám đường cong U&#45;Turn 180°)</text>
</g>
<!-- fsm&#45;&gt;pp -->
<g id="edge14" class="edge">
<title>fsm&#45;&gt;pp</title>
<path fill="none" stroke="#2563eb" stroke-width="1.5" d="M859.12,-263C870.72,-263 882.73,-263 894.54,-263"/>
<polygon fill="#2563eb" stroke="#2563eb" stroke-width="1.5" points="894.86,-266.5 904.86,-263 894.86,-259.5 894.86,-266.5"/>
</g>
<!-- rrt -->
<g id="node15" class="node">
<title>rrt</title>
<path fill="#93c5fd" stroke="#1d4ed8" stroke-width="1.5" d="M1057.5,-417C1057.5,-417 918.5,-417 918.5,-417 912.5,-417 906.5,-411 906.5,-405 906.5,-405 906.5,-393 906.5,-393 906.5,-387 912.5,-381 918.5,-381 918.5,-381 1057.5,-381 1057.5,-381 1063.5,-381 1069.5,-387 1069.5,-393 1069.5,-393 1069.5,-405 1069.5,-405 1069.5,-411 1063.5,-417 1057.5,-417"/>
<text text-anchor="middle" x="988" y="-402" font-family="DejaVu Sans" font-size="10.00">RRT* Path Planner</text>
<text text-anchor="middle" x="988" y="-391" font-family="DejaVu Sans" font-size="10.00">(Quy hoạch đường né vật cản)</text>
</g>
<!-- fsm&#45;&gt;rrt -->
<g id="edge15" class="edge">
<title>fsm&#45;&gt;rrt</title>
<path fill="none" stroke="#2563eb" stroke-width="1.5" d="M797.77,-281.13C821.32,-303.15 863.64,-340.39 905,-365 912.14,-369.25 919.91,-373.22 927.72,-376.83"/>
<polygon fill="#2563eb" stroke="#2563eb" stroke-width="1.5" points="926.33,-380.04 936.89,-380.91 929.17,-373.64 926.33,-380.04"/>
</g>
<!-- bridge -->
<g id="node16" class="node">
<title>bridge</title>
<path fill="#bfdbfe" stroke="#1d4ed8" stroke-width="1.5" d="M1403,-349C1403,-349 1263,-349 1263,-349 1257,-349 1251,-343 1251,-337 1251,-337 1251,-325 1251,-325 1251,-319 1257,-313 1263,-313 1263,-313 1403,-313 1403,-313 1409,-313 1415,-319 1415,-325 1415,-325 1415,-337 1415,-337 1415,-343 1409,-349 1403,-349"/>
<text text-anchor="middle" x="1333" y="-334" font-family="DejaVu Sans" font-size="10.00">Cầu nối esp32_bridge</text>
<text text-anchor="middle" x="1333" y="-323" font-family="DejaVu Sans" font-size="10.00">(Quy đổi động học vi sai &amp; TF)</text>
</g>
<!-- smc&#45;&gt;bridge -->
<g id="edge16" class="edge">
<title>smc&#45;&gt;bridge</title>
<path fill="none" stroke="#2563eb" stroke-width="1.5" d="M1068.55,-331C1119.96,-331 1187.02,-331 1240.61,-331"/>
<polygon fill="#2563eb" stroke="#2563eb" stroke-width="1.5" points="1240.8,-334.5 1250.8,-331 1240.8,-327.5 1240.8,-334.5"/>
<text text-anchor="middle" x="1156.5" y="-333.8" font-family="DejaVu Sans" font-size="9.00">cmd_vel</text>
</g>
<!-- pp&#45;&gt;bridge -->
<g id="edge17" class="edge">
<title>pp&#45;&gt;bridge</title>
<path fill="none" stroke="#2563eb" stroke-width="1.5" d="M1071.16,-279.29C1122.27,-289.42 1188.06,-302.46 1240.79,-312.92"/>
<polygon fill="#2563eb" stroke="#2563eb" stroke-width="1.5" points="1240.32,-316.39 1250.81,-314.9 1241.68,-309.53 1240.32,-316.39"/>
<text text-anchor="middle" x="1156.5" y="-309.8" font-family="DejaVu Sans" font-size="9.00">cmd_vel</text>
</g>
<!-- bridge&#45;&gt;ekf -->
<g id="edge20" class="edge">
<title>bridge&#45;&gt;ekf</title>
<path fill="none" stroke="#9333ea" stroke-width="1.5" stroke-dasharray="5,2" d="M1296.75,-312.88C1274.85,-301.82 1246.01,-287.62 1220,-276 1158.29,-248.42 1143.88,-237.96 1079,-219 1010.25,-198.91 930.46,-184.42 870.46,-175.22"/>
<polygon fill="#9333ea" stroke="#9333ea" stroke-width="1.5" points="870.66,-171.71 860.25,-173.68 869.61,-178.63 870.66,-171.71"/>
<text text-anchor="middle" x="988" y="-221.8" font-family="DejaVu Sans" font-size="9.00">/odom/raw</text>
</g>
<!-- uart -->
<g id="node17" class="node">
<title>uart</title>
<path fill="#f3e8ff" stroke="#9333ea" stroke-width="1.5" d="M1035,-532C1035,-532 941,-532 941,-532 935,-532 929,-526 929,-520 929,-520 929,-508 929,-508 929,-502 935,-496 941,-496 941,-496 1035,-496 1035,-496 1041,-496 1047,-502 1047,-508 1047,-508 1047,-520 1047,-520 1047,-526 1041,-532 1035,-532"/>
<text text-anchor="middle" x="988" y="-517" font-family="DejaVu Sans" font-size="10.00">Mô&#45;đun UART Serial</text>
<text text-anchor="middle" x="988" y="-506" font-family="DejaVu Sans" font-size="10.00">(115200 baud, 20Hz)</text>
</g>
<!-- bridge&#45;&gt;uart -->
<g id="edge18" class="edge">
<title>bridge&#45;&gt;uart</title>
<path fill="none" stroke="#9333ea" stroke-width="2.5" d="M1269.86,-349.04C1218.96,-365.83 1146.83,-394.4 1093,-435 1085.19,-440.89 1086.21,-445.38 1079,-452 1063.67,-466.07 1044.95,-479.47 1028.57,-490.18"/>
<polygon fill="#9333ea" stroke="#9333ea" stroke-width="2.5" points="1026.26,-487.5 1019.74,-495.85 1030.05,-493.39 1026.26,-487.5"/>
<text text-anchor="middle" x="1156.5" y="-437.8" font-family="DejaVu Sans" font-size="9.00">Gửi &#39;V rpm_L rpm_R&#39; (20Hz)</text>
</g>
<!-- uart&#45;&gt;bridge -->
<g id="edge19" class="edge">
<title>uart&#45;&gt;bridge</title>
<path fill="none" stroke="#9333ea" stroke-width="2.5" d="M1047.01,-506.48C1095.91,-498.16 1166.31,-481.39 1220,-449 1259.28,-425.3 1293.8,-384.17 1313.79,-357.27"/>
<polygon fill="#9333ea" stroke="#9333ea" stroke-width="2.5" points="1316.7,-359.22 1319.76,-349.08 1311.04,-355.1 1316.7,-359.22"/>
<text text-anchor="middle" x="1156.5" y="-499.8" font-family="DejaVu Sans" font-size="9.00">Nhận &#39;ODOM v_L v_R&#39;</text>
</g>
<!-- safety -->
<g id="node18" class="node">
<title>safety</title>
<path fill="#f3e8ff" stroke="#9333ea" stroke-width="1.5" d="M1412,-599C1412,-599 1254,-599 1254,-599 1248,-599 1242,-593 1242,-587 1242,-587 1242,-575 1242,-575 1242,-569 1248,-563 1254,-563 1254,-563 1412,-563 1412,-563 1418,-563 1424,-569 1424,-575 1424,-575 1424,-587 1424,-587 1424,-593 1418,-599 1412,-599"/>
<text text-anchor="middle" x="1333" y="-584" font-family="DejaVu Sans" font-size="10.00">Giám sát an toàn</text>
<text text-anchor="middle" x="1333" y="-573" font-family="DejaVu Sans" font-size="10.00">(Slew Rate Limiter + Stall Detect)</text>
</g>
<!-- uart&#45;&gt;safety -->
<g id="edge21" class="edge">
<title>uart&#45;&gt;safety</title>
<path fill="none" stroke="#9333ea" stroke-width="1.5" d="M1047.19,-525.37C1097.7,-535.23 1171.95,-549.74 1231.98,-561.46"/>
<polygon fill="#9333ea" stroke="#9333ea" stroke-width="1.5" points="1231.38,-564.91 1241.86,-563.39 1232.72,-558.04 1231.38,-564.91"/>
</g>
<!-- pid -->
<g id="node20" class="node">
<title>pid</title>
<path fill="#e9d5ff" stroke="#7e22ce" stroke-width="1.5" d="M1675,-627.5C1675,-627.5 1529,-627.5 1529,-627.5 1523,-627.5 1517,-621.5 1517,-615.5 1517,-615.5 1517,-598.5 1517,-598.5 1517,-592.5 1523,-586.5 1529,-586.5 1529,-586.5 1675,-586.5 1675,-586.5 1681,-586.5 1687,-592.5 1687,-598.5 1687,-598.5 1687,-615.5 1687,-615.5 1687,-621.5 1681,-627.5 1675,-627.5"/>
<text text-anchor="middle" x="1602" y="-615.5" font-family="DejaVu Sans" font-size="10.00">4 Vòng Lặp Kín PID Độc Lập</text>
<text text-anchor="middle" x="1602" y="-604.5" font-family="DejaVu Sans" font-size="10.00">+ Bù đồng tốc K_sync</text>
<text text-anchor="middle" x="1602" y="-593.5" font-family="DejaVu Sans" font-size="10.00">+ Khóa hướng thẳng K_heading</text>
</g>
<!-- safety&#45;&gt;pid -->
<g id="edge22" class="edge">
<title>safety&#45;&gt;pid</title>
<path fill="none" stroke="#9333ea" stroke-width="1.5" d="M1424.02,-589.77C1450.6,-592.35 1479.76,-595.19 1506.61,-597.81"/>
<polygon fill="#9333ea" stroke="#9333ea" stroke-width="1.5" points="1506.48,-601.31 1516.78,-598.8 1507.16,-594.35 1506.48,-601.31"/>
</g>
<!-- kalman&#45;&gt;pid -->
<g id="edge29" class="edge">
<title>kalman&#45;&gt;pid</title>
<path fill="none" stroke="#9333ea" stroke-width="1.5" d="M1401.72,-638.35C1433.5,-633.35 1471.91,-627.31 1506.49,-621.87"/>
<polygon fill="#9333ea" stroke="#9333ea" stroke-width="1.5" points="1507.28,-625.29 1516.61,-620.27 1506.19,-618.37 1507.28,-625.29"/>
<text text-anchor="middle" x="1470.5" y="-632.8" font-family="DejaVu Sans" font-size="9.00">RPM đã lọc</text>
</g>
<!-- pid&#45;&gt;uart -->
<g id="edge30" class="edge">
<title>pid&#45;&gt;uart</title>
<path fill="none" stroke="#9333ea" stroke-width="1.5" stroke-dasharray="5,2" d="M1560,-586.37C1524.87,-569.78 1472.43,-547.56 1424,-537 1356.16,-522.2 1161.81,-516.8 1057.36,-514.93"/>
<polygon fill="#9333ea" stroke="#9333ea" stroke-width="1.5" points="1057.29,-511.43 1047.23,-514.75 1057.17,-518.43 1057.29,-511.43"/>
<text text-anchor="middle" x="1333" y="-539.8" font-family="DejaVu Sans" font-size="9.00">Vận tốc thực v_L, v_R</text>
</g>
<!-- pwm -->
<g id="node21" class="node">
<title>pwm</title>
<path fill="#f3e8ff" stroke="#9333ea" stroke-width="1.5" d="M1859,-658C1859,-658 1746,-658 1746,-658 1740,-658 1734,-652 1734,-646 1734,-646 1734,-634 1734,-634 1734,-628 1740,-622 1746,-622 1746,-622 1859,-622 1859,-622 1865,-622 1871,-628 1871,-634 1871,-634 1871,-646 1871,-646 1871,-652 1865,-658 1859,-658"/>
<text text-anchor="middle" x="1802.5" y="-643" font-family="DejaVu Sans" font-size="10.00">Bộ phát xung PWM LEDC</text>
<text text-anchor="middle" x="1802.5" y="-632" font-family="DejaVu Sans" font-size="10.00">(8 kênh, 7 kHz, 8&#45;bit)</text>
</g>
<!-- pid&#45;&gt;pwm -->
<g id="edge23" class="edge">
<title>pid&#45;&gt;pwm</title>
<path fill="none" stroke="#9333ea" stroke-width="1.5" d="M1687.18,-620.99C1699.32,-623.01 1711.76,-625.08 1723.76,-627.08"/>
<polygon fill="#9333ea" stroke="#9333ea" stroke-width="1.5" points="1723.28,-630.54 1733.72,-628.73 1724.43,-623.64 1723.28,-630.54"/>
</g>
<!-- pwm&#45;&gt;drv -->
<g id="edge24" class="edge">
<title>pwm&#45;&gt;drv</title>
<path fill="none" stroke="#dc2626" stroke-width="2" d="M1871,-647.32C1908.08,-651.34 1954.26,-656.34 1992.89,-660.53"/>
<polygon fill="#dc2626" stroke="#dc2626" stroke-width="2" points="1992.74,-664.04 2003.06,-661.63 1993.49,-657.08 1992.74,-664.04"/>
<text text-anchor="middle" x="1936" y="-660.8" font-family="DejaVu Sans" font-size="9.00">8 Kênh PWM 7kHz</text>
</g>
<!-- motors -->
<g id="node23" class="node">
<title>motors</title>
<path fill="#fecaca" stroke="#dc2626" stroke-width="1.5" d="M2382,-687C2382,-687 2257,-687 2257,-687 2251,-687 2245,-681 2245,-675 2245,-675 2245,-663 2245,-663 2245,-657 2251,-651 2257,-651 2257,-651 2382,-651 2382,-651 2388,-651 2394,-657 2394,-663 2394,-663 2394,-675 2394,-675 2394,-681 2388,-687 2382,-687"/>
<text text-anchor="middle" x="2319.5" y="-672" font-family="DejaVu Sans" font-size="10.00">4 Động cơ DC 775 24V</text>
<text text-anchor="middle" x="2319.5" y="-661" font-family="DejaVu Sans" font-size="10.00">(Hộp số giảm tốc 220 RPM)</text>
</g>
<!-- drv&#45;&gt;motors -->
<g id="edge25" class="edge">
<title>drv&#45;&gt;motors</title>
<path fill="none" stroke="#dc2626" stroke-width="2" d="M2140.73,-669C2169.81,-669 2204.07,-669 2234.72,-669"/>
<polygon fill="#dc2626" stroke="#dc2626" stroke-width="2" points="2234.96,-672.5 2244.96,-669 2234.96,-665.5 2234.96,-672.5"/>
<text text-anchor="middle" x="2195" y="-671.8" font-family="DejaVu Sans" font-size="9.00">Điện áp 24V</text>
</g>
<!-- wheels -->
<g id="node24" class="node">
<title>wheels</title>
<path fill="#fca5a5" stroke="#b91c1c" stroke-width="1.5" d="M2748,-687C2748,-687 2617,-687 2617,-687 2611,-687 2605,-681 2605,-675 2605,-675 2605,-663 2605,-663 2605,-657 2611,-651 2617,-651 2617,-651 2748,-651 2748,-651 2754,-651 2760,-657 2760,-663 2760,-663 2760,-675 2760,-675 2760,-681 2754,-687 2748,-687"/>
<text text-anchor="middle" x="2682.5" y="-672" font-family="DejaVu Sans" font-size="10.00">4 Bánh xe cao su D=200mm</text>
<text text-anchor="middle" x="2682.5" y="-661" font-family="DejaVu Sans" font-size="10.00">(Chuyển động thực tế)</text>
</g>
<!-- motors&#45;&gt;wheels -->
<g id="edge26" class="edge">
<title>motors&#45;&gt;wheels</title>
<path fill="none" stroke="#dc2626" stroke-width="2" d="M2394.42,-669C2452.56,-669 2533.67,-669 2594.85,-669"/>
<polygon fill="#dc2626" stroke="#dc2626" stroke-width="2" points="2594.87,-672.5 2604.87,-669 2594.87,-665.5 2594.87,-672.5"/>
</g>
<!-- wheels&#45;&gt;enc -->
<g id="edge27" class="edge">
<title>wheels&#45;&gt;enc</title>
<path fill="none" stroke="#16a34a" stroke-width="1.5" stroke-dasharray="5,2" d="M2621.77,-687.04C2550.68,-706.89 2428.07,-736 2320.5,-736 468,-736 468,-736 468,-736 354.08,-736 328.89,-670.12 271,-572 254.21,-543.55 267.82,-530.21 257,-499 227.68,-414.44 173.73,-322.87 146.18,-278.75"/>
<polygon fill="#16a34a" stroke="#16a34a" stroke-width="1.5" points="149.01,-276.67 140.72,-270.08 143.08,-280.4 149.01,-276.67"/>
<text text-anchor="middle" x="1470.5" y="-738.8" font-family="DejaVu Sans" font-size="9.00">Trục quay</text>
</g>
<!-- rviz -->
<g id="node25" class="node">
<title>rviz</title>
<path fill="#e2e8f0" stroke="#64748b" stroke-width="1.5" d="M182.5,-687C182.5,-687 73.5,-687 73.5,-687 67.5,-687 61.5,-681 61.5,-675 61.5,-675 61.5,-663 61.5,-663 61.5,-657 67.5,-651 73.5,-651 73.5,-651 182.5,-651 182.5,-651 188.5,-651 194.5,-657 194.5,-663 194.5,-663 194.5,-675 194.5,-675 194.5,-681 188.5,-687 182.5,-687"/>
<text text-anchor="middle" x="128" y="-672" font-family="DejaVu Sans" font-size="10.00">Giao diện đồ họa RViz 2</text>
<text text-anchor="middle" x="128" y="-661" font-family="DejaVu Sans" font-size="10.00">(3D Xe, Lidar, Bản đồ)</text>
</g>
<!-- teleop -->
<g id="node26" class="node">
<title>teleop</title>
<path fill="#e2e8f0" stroke="#64748b" stroke-width="1.5" d="M194,-619C194,-619 62,-619 62,-619 56,-619 50,-613 50,-607 50,-607 50,-595 50,-595 50,-589 56,-583 62,-583 62,-583 194,-583 194,-583 200,-583 206,-589 206,-595 206,-595 206,-607 206,-607 206,-613 200,-619 194,-619"/>
<text text-anchor="middle" x="128" y="-604" font-family="DejaVu Sans" font-size="10.00">Bàn phím lái xe từ xa</text>
<text text-anchor="middle" x="128" y="-593" font-family="DejaVu Sans" font-size="10.00">(WASD 15Hz nuôi Watchdog)</text>
</g>
<!-- stream -->
<g id="node27" class="node">
<title>stream</title>
<path fill="#e2e8f0" stroke="#64748b" stroke-width="1.5" d="M191.5,-551C191.5,-551 64.5,-551 64.5,-551 58.5,-551 52.5,-545 52.5,-539 52.5,-539 52.5,-527 52.5,-527 52.5,-521 58.5,-515 64.5,-515 64.5,-515 191.5,-515 191.5,-515 197.5,-515 203.5,-521 203.5,-527 203.5,-527 203.5,-539 203.5,-539 203.5,-545 197.5,-551 191.5,-551"/>
<text text-anchor="middle" x="128" y="-530.5" font-family="DejaVu Sans" font-size="10.00">Bộ nén ảnh Wi&#45;Fi &amp; Dataset</text>
</g>
<!-- cluster_hmi -->
<g id="node30" class="node">
<title>cluster_hmi</title>
<path fill="lightgrey" stroke="black" stroke-width="1.5" d="M2707.5,-890C2707.5,-890 2657.5,-890 2657.5,-890 2651.5,-890 2645.5,-884 2645.5,-878 2645.5,-878 2645.5,-866 2645.5,-866 2645.5,-860 2651.5,-854 2657.5,-854 2657.5,-854 2707.5,-854 2707.5,-854 2713.5,-854 2719.5,-860 2719.5,-866 2719.5,-866 2719.5,-878 2719.5,-878 2719.5,-884 2713.5,-890 2707.5,-890"/>
<text text-anchor="middle" x="2682.5" y="-869.5" font-family="DejaVu Sans" font-size="10.00">cluster_hmi</text>
</g>
<!-- cluster_rpi&#45;&gt;cluster_hmi -->
<g id="edge31" class="edge">
<title>cluster_rpi&#45;&gt;cluster_hmi</title>
<path fill="none" stroke="#64748b" stroke-width="2" stroke-dasharray="5,2" d="M2363.9,-872C2432.33,-872 2564.72,-872 2635.02,-872"/>
<polygon fill="#64748b" stroke="#64748b" stroke-width="2" points="2363.81,-868.5 2353.81,-872 2363.81,-875.5 2363.81,-868.5"/>
<polygon fill="#64748b" stroke="#64748b" stroke-width="2" points="2635.34,-875.5 2645.34,-872 2635.34,-868.5 2635.34,-875.5"/>
<text text-anchor="middle" x="2499.5" y="-874.8" font-family="DejaVu Sans" font-size="9.00">Mạng Wi&#45;Fi / CycloneDDS (Domain 0)</text>
</g>
</g>
</svg>
